# xmcd
#
# Track frame offsets:
#	155
#	19340
#	36967
#	47805
#	60382
#	72680
#	86662
#	98937
#	112715
#	125675
#	138022
#	151710
#	164142
#	177142
#	189247
#	201242
#	214830
#	228835
#
# Disc length: 3207 seconds
#
# Revision: 0
# Processed by: cddbd v1.5PL3 Copyright (c) Steve Scherf et al.
# Submitted via: dBpowerAMP V4.0
#
DISCID=f70c8512
DTITLE=Howling Wolf  - Rides Again
DYEAR=1991
DGENRE=Blues
TTITLE0=House Rockin' Boogie
TTITLE1=Crying At Daybreak
TTITLE2=Keep What You Got
TTITLE3=Dog Me Around 
TTITLE4=Morning At Midnight Aka Moaning At Midnight 
TTITLE5=Riding In The Moonlight 
TTITLE6=Chocolate Drop (Brown Skin Woman) 
TTITLE7=My Baby Stole Off 
TTITLE8=I Want Your Picture 
TTITLE9=Passing By Blues 
TTITLE10=Worried About My Baby 
TTITLE11=Chocolate Drop (Brown Skin Woman) (Alt) 
TTITLE12=Driving This Highway 
TTITLE13=The Sun Is Rising 
TTITLE14=Riding In The Moonlight (Audition Acetate) 
TTITLE15=My Friends 
TTITLE16=I'm The Wolf 
TTITLE17=Riding In The Moonlight (Audition Acetate)
EXTD=
EXTT0=
EXTT1=
EXTT2=
EXTT3=
EXTT4=
EXTT5=
EXTT6=
EXTT7=
EXTT8=
EXTT9=
EXTT10=
EXTT11=
EXTT12=
EXTT13=
EXTT14=
EXTT15=
EXTT16=
EXTT17=
PLAYORDER=
